<svg width="65" height="67" viewBox="0 0 65 67" fill="none" xmlns="http://www.w3.org/2000/svg">
<path d="M32.3194 64.1465C48.6717 64.1465 61.9279 50.4153 61.9279 33.4771C61.9279 16.5388 48.6717 2.80762 32.3194 2.80762C15.9671 2.80762 2.71094 16.5388 2.71094 33.4771C2.71094 50.4153 15.9671 64.1465 32.3194 64.1465Z" fill="black"/>
<path fill-rule="evenodd" clip-rule="evenodd" d="M46.3348 15.1016V21.385H30.3162L23.423 32.7996V32.7714L18.9492 40.2119L23.423 27.4474L25.1873 22.4197L23.423 24.3762V15.1016H46.3348Z" fill="white"/>
<path fill-rule="evenodd" clip-rule="evenodd" d="M43.6288 30.8008V37.0842H30.3151V50.9633H23.4219V46.5753L32.9919 30.8008H43.6288Z" fill="white"/>
<path fill-rule="evenodd" clip-rule="evenodd" d="M32.318 0.404474C14.713 0.404474 0.388415 15.243 0.388415 33.4773C0.388415 51.5845 14.713 66.4231 32.318 66.55C32.3976 66.55 32.4725 66.55 32.552 66.55C50.1898 66.55 64.0932 52.0689 64.243 33.4726C64.3131 24.7293 61.0608 16.4752 55.0848 10.2294C49.0246 3.89424 40.938 0.404474 32.318 0.404474ZM32.552 66.9592C32.4725 66.9592 32.3976 66.9592 32.318 66.9592C23.6699 66.8981 15.5553 63.3989 9.46704 57.106C3.36003 50.7944 0 42.4086 0 33.4773C0 24.5365 3.36003 16.1272 9.46704 9.80614C15.5694 3.48506 23.6887 0 32.3227 0C36.7216 0 40.9895 0.898309 45.0141 2.67141C48.9029 4.38337 52.3893 6.83372 55.3702 9.94723C61.4258 16.273 64.7156 24.6306 64.6454 33.482C64.5705 42.5685 61.1777 51.0389 55.0988 57.3224C49.076 63.54 41.0784 66.9592 32.552 66.9592Z" fill="#0096EA"/>
<path fill-rule="evenodd" clip-rule="evenodd" d="M18.3027 53.8795L24.7233 37.3761L19.3089 40.6589L23.7873 33.2467L30.6805 21.832L27.8166 31.1255L27.9663 31.0832L33.0766 29.5217L18.3027 53.8795Z" fill="#0096EA"/>
</svg>
