<svg width="241" height="82" viewBox="0 0 241 82" fill="none" xmlns="http://www.w3.org/2000/svg">
<g clip-path="url(#clip0_814_1338)">
<path fill-rule="evenodd" clip-rule="evenodd" d="M78.6037 51.044H73.3203V25.3411H90.8786V30.1571H78.599V35.5893H90.6165V40.4054H78.599V51.044H78.6037ZM110.341 51.044H94.5662V25.3411H99.8495V46.2279H110.341V51.044ZM124.666 51.5049C120.922 51.5049 117.824 50.2538 115.381 47.747C112.939 45.2402 111.717 42.0609 111.717 38.209C111.717 34.3571 112.939 31.1777 115.381 28.6709C117.824 26.1641 120.918 24.9131 124.666 24.9131C128.438 24.9131 131.54 26.1594 133.988 28.6521C136.431 31.1448 137.652 34.3289 137.652 38.209C137.652 42.0891 136.431 45.2732 133.988 47.7659C131.54 50.2585 128.433 51.5049 124.666 51.5049ZM119.214 44.262C120.59 45.8564 122.406 46.6512 124.666 46.6512C126.922 46.6512 128.747 45.8564 130.137 44.262C131.526 42.6676 132.219 40.6499 132.219 38.209C132.219 35.768 131.526 33.7504 130.137 32.1607C128.747 30.5663 126.926 29.7715 124.666 29.7715C122.41 29.7715 120.59 30.5663 119.214 32.1607C117.838 33.7551 117.15 35.7727 117.15 38.209C117.15 40.6499 117.838 42.6676 119.214 44.262ZM163.582 51.044H158.486L146.656 34.2818V51.044H141.373V25.3411H146.806L158.304 41.4871V25.3411H163.587V51.044H163.582ZM173.775 51.044H168.491V25.3411H173.775V51.044Z" fill="black"/>
<path fill-rule="evenodd" clip-rule="evenodd" d="M198.528 40.9549L191.48 47.9956L190.17 49.3595L171.268 69.0894H152.676L229.39 8.55469L198.551 40.9314L198.528 40.9549Z" fill="black"/>
<path d="M32.3194 69.4893C48.6717 69.4893 61.9279 55.7581 61.9279 38.8198C61.9279 21.8816 48.6717 8.15039 32.3194 8.15039C15.9671 8.15039 2.71094 21.8816 2.71094 38.8198C2.71094 55.7581 15.9671 69.4893 32.3194 69.4893Z" fill="black"/>
<path fill-rule="evenodd" clip-rule="evenodd" d="M46.3348 20.4443V26.7278H30.3162L23.423 38.1424V38.1142L18.9492 45.5546L23.423 32.7902L25.1873 27.7625L23.423 29.719V20.4443H46.3348Z" fill="white"/>
<path fill-rule="evenodd" clip-rule="evenodd" d="M43.6288 36.1436V42.427H30.3151V56.3061H23.4219V51.918L32.9919 36.1436H43.6288Z" fill="white"/>
<path fill-rule="evenodd" clip-rule="evenodd" d="M32.318 5.74725C14.713 5.74725 0.388415 20.5858 0.388415 38.82C0.388415 56.9273 14.713 71.7658 32.318 71.8928C32.3976 71.8928 32.4725 71.8928 32.552 71.8928C50.1898 71.8928 64.0932 57.4117 64.243 38.8153C64.3131 30.0721 61.0608 21.818 55.0848 15.5722C49.0246 9.23701 40.938 5.74725 32.318 5.74725ZM32.552 72.302C32.4725 72.302 32.3976 72.302 32.318 72.302C23.6699 72.2408 15.5553 68.7417 9.46704 62.4488C3.36003 56.1371 0 47.7514 0 38.82C0 29.8793 3.36003 21.47 9.46704 15.1489C15.5694 8.82783 23.6887 5.34277 32.3227 5.34277C36.7216 5.34277 40.9895 6.24108 45.0141 8.01418C48.9029 9.72614 52.3893 12.1765 55.3702 15.29C61.4258 21.6158 64.7156 29.9733 64.6454 38.8247C64.5705 47.9113 61.1777 56.3817 55.0988 62.6652C49.076 68.8828 41.0784 72.302 32.552 72.302Z" fill="#0096EA"/>
<path fill-rule="evenodd" clip-rule="evenodd" d="M198.967 43.6455L202.991 51.0201H192.948L192.504 50.103L198.967 43.6455Z" fill="#0096EA"/>
<path fill-rule="evenodd" clip-rule="evenodd" d="M186.864 39.2107L193.701 33.8255L189.293 25.3457H179.531L186.864 39.2107Z" fill="#0096EA"/>
<path fill-rule="evenodd" clip-rule="evenodd" d="M76.0267 63.2199H75.2545V57.4914H73.2891V56.7765H78.0062V57.4914H76.0314V63.2199H76.0267ZM85.1427 63.2199H81.0667V56.7765H85.1427V57.4914H81.8436V59.5655H85.0772V60.2804H81.8436V62.5003H85.1427V63.2199ZM91.3621 63.3374C90.4542 63.3374 89.6961 63.027 89.0831 62.4062C88.47 61.7854 88.1658 60.9858 88.1658 60.0076C88.1658 59.0293 88.47 58.2298 89.0831 57.609C89.6961 56.9881 90.4542 56.6777 91.3621 56.6777C92.3588 56.6777 93.1404 57.101 93.7206 57.9523L93.0702 58.3285C92.8877 58.0511 92.649 57.8253 92.3448 57.6513C92.0406 57.4773 91.7131 57.3926 91.3668 57.3926C90.6835 57.3926 90.1126 57.6372 89.654 58.131C89.1954 58.6249 88.9707 59.2504 88.9707 60.0076C88.9707 60.7695 89.2001 61.395 89.654 61.8842C90.1126 62.378 90.6788 62.6226 91.3668 62.6226C91.7131 62.6226 92.0406 62.5379 92.3448 62.3686C92.649 62.1993 92.8923 61.9688 93.0702 61.6866L93.73 62.0629C93.1263 62.9095 92.3354 63.3374 91.3621 63.3374ZM101.943 63.2199H101.171V60.2663H97.5346V63.2199H96.7625V56.7765H97.5346V59.5467H101.171V56.7765H101.943V63.2199ZM110.586 63.2199H109.842L106.215 58.084V63.2199H105.443V56.7765H106.229L109.809 61.8089V56.7765H110.582V63.2199H110.586ZM116.918 63.3374C116.005 63.3374 115.261 63.0223 114.69 62.3921C114.119 61.7619 113.834 60.967 113.834 60.0076C113.834 59.0481 114.119 58.2533 114.69 57.6231C115.261 56.9928 116.005 56.6777 116.918 56.6777C117.826 56.6777 118.565 56.9928 119.141 57.6231C119.716 58.2533 120.002 59.0481 120.002 60.0076C120.002 60.967 119.716 61.7619 119.141 62.3921C118.565 63.0223 117.821 63.3374 116.918 63.3374ZM116.918 62.6226C117.601 62.6226 118.153 62.378 118.575 61.8842C118.996 61.3903 119.202 60.7648 119.202 60.0076C119.202 59.241 118.991 58.6154 118.575 58.1263C118.153 57.6372 117.606 57.3926 116.918 57.3926C116.23 57.3926 115.673 57.6372 115.257 58.1263C114.84 58.6154 114.634 59.2457 114.634 60.0076C114.634 60.7695 114.84 61.395 115.257 61.8842C115.673 62.3733 116.225 62.6226 116.918 62.6226ZM126.918 63.2199H123.254V56.7765H124.026V62.505H126.918V63.2199ZM132.291 63.3374C131.378 63.3374 130.634 63.0223 130.063 62.3921C129.492 61.7619 129.207 60.967 129.207 60.0076C129.207 59.0481 129.492 58.2533 130.063 57.6231C130.634 56.9928 131.378 56.6777 132.291 56.6777C133.199 56.6777 133.938 56.9928 134.514 57.6231C135.089 58.2533 135.375 59.0481 135.375 60.0076C135.375 60.967 135.089 61.7619 134.514 62.3921C133.938 63.0223 133.194 63.3374 132.291 63.3374ZM132.291 62.6226C132.974 62.6226 133.526 62.378 133.947 61.8842C134.369 61.3903 134.574 60.7648 134.574 60.0076C134.574 59.241 134.364 58.6154 133.947 58.1263C133.526 57.6372 132.979 57.3926 132.291 57.3926C131.603 57.3926 131.046 57.6372 130.629 58.1263C130.213 58.6154 130.007 59.2457 130.007 60.0076C130.007 60.7695 130.218 61.395 130.629 61.8842C131.046 62.3733 131.598 62.6226 132.291 62.6226ZM141.575 63.3468C140.672 63.3468 139.914 63.0364 139.301 62.4156C138.688 61.7948 138.379 60.9906 138.379 60.0076C138.379 59.0246 138.688 58.2204 139.301 57.6043C139.914 56.9881 140.672 56.6777 141.575 56.6777C142.558 56.6777 143.363 57.0822 143.99 57.8865L143.377 58.2815C143.18 58.0087 142.918 57.7971 142.6 57.6325C142.282 57.4726 141.94 57.3926 141.58 57.3926C140.897 57.3926 140.326 57.6372 139.867 58.131C139.409 58.6249 139.184 59.2504 139.184 60.0076C139.184 60.7695 139.413 61.395 139.867 61.8889C140.326 62.3827 140.892 62.632 141.58 62.632C141.922 62.632 142.24 62.5614 142.535 62.425C142.829 62.2886 143.068 62.124 143.246 61.9359V60.6237H141.112V59.9088H144.023V62.2369C143.377 62.9753 142.563 63.3468 141.575 63.3468ZM149.723 63.2199H148.95V60.4967L146.498 56.7765H147.402L149.33 59.7724L151.258 56.7765H152.161L149.718 60.4967V63.2199H149.723Z" fill="#0096EA"/>
<path fill-rule="evenodd" clip-rule="evenodd" d="M18.3027 59.2223L24.7233 42.7188L19.3089 46.0016L23.7873 38.5894L30.6805 27.1748L27.8166 36.4683L27.9663 36.426L33.0766 34.8645L18.3027 59.2223Z" fill="#0096EA"/>
<path fill-rule="evenodd" clip-rule="evenodd" d="M235.618 10.4223C233.039 10.4223 230.943 8.24938 230.943 5.57798C230.943 2.90657 233.039 0.733697 235.618 0.733697C238.197 0.733697 240.293 2.90657 240.293 5.57798C240.293 8.24938 238.197 10.4223 235.618 10.4223ZM235.618 0C232.651 0 230.236 2.50209 230.236 5.57798C230.236 8.65386 232.651 11.156 235.618 11.156C238.585 11.156 241 8.65386 241 5.57798C241 2.50209 238.585 0 235.618 0Z" fill="black"/>
<path fill-rule="evenodd" clip-rule="evenodd" d="M234.59 3.69683V5.46993H236.129C236.77 5.46993 237.047 5.02783 237.047 4.58103C237.047 4.13893 236.766 3.69213 236.129 3.69213H234.59V3.69683ZM238.319 8.26833H237.117L235.558 6.41527H234.585V8.26833H233.574V2.71387C234.421 2.71387 235.273 2.72327 236.12 2.72327C237.383 2.73268 238.048 3.60277 238.048 4.56222C238.048 5.32413 237.711 6.09075 236.696 6.3071L238.319 8.20248V8.26833Z" fill="black"/>
<path fill-rule="evenodd" clip-rule="evenodd" d="M84.3235 79.7044C84.3235 79.7373 84.3141 79.7655 84.3001 79.7843C84.286 79.8078 84.258 79.8266 84.2158 79.8407C84.1737 79.8548 84.1222 79.869 84.0614 79.8784C84.0006 79.8878 83.921 79.8925 83.8181 79.8925C83.7245 79.8925 83.6449 79.8878 83.5794 79.8784C83.5139 79.869 83.4624 79.8548 83.425 79.8407C83.3875 79.8266 83.3595 79.8078 83.3454 79.7843C83.3314 79.7608 83.322 79.7326 83.322 79.7044V73.0729H83.308L80.6593 79.7326C80.6499 79.7608 80.6312 79.7843 80.6125 79.8031C80.5891 79.8219 80.561 79.8407 80.5189 79.8548C80.4768 79.869 80.43 79.8784 80.3738 79.8831C80.3176 79.8878 80.2521 79.8925 80.1726 79.8925C80.093 79.8925 80.0228 79.8878 79.962 79.8784C79.9058 79.869 79.8544 79.8596 79.8169 79.8454C79.7795 79.8313 79.7467 79.8172 79.7233 79.7937C79.7046 79.7749 79.6859 79.7514 79.6812 79.7279L77.1448 73.0682H77.1401V79.6996C77.1401 79.7326 77.1308 79.7608 77.1167 79.7796C77.1027 79.8031 77.0746 79.8219 77.0325 79.836C76.9951 79.8501 76.9389 79.8643 76.8781 79.8737C76.8125 79.8831 76.733 79.8878 76.6347 79.8878C76.5364 79.8878 76.4569 79.8831 76.3961 79.8737C76.3305 79.8643 76.2791 79.8501 76.2416 79.836C76.2042 79.8219 76.1761 79.8031 76.1621 79.7796C76.148 79.7561 76.1387 79.7279 76.1387 79.6996V72.6966C76.1387 72.532 76.1808 72.4144 76.2697 72.3439C76.3586 72.2733 76.4522 72.2357 76.5598 72.2357H77.1729C77.2992 72.2357 77.4069 72.2498 77.5005 72.2733C77.5941 72.2968 77.6783 72.3345 77.7485 72.3815C77.8187 72.4332 77.8795 72.4991 77.9263 72.5743C77.9731 72.6543 78.0152 72.7436 78.0527 72.8518L80.2053 78.3639H80.2334L82.4656 72.8659C82.5077 72.7483 82.5545 72.6496 82.6107 72.5649C82.6622 72.485 82.7183 72.4144 82.7792 72.3674C82.84 72.3156 82.9102 72.2827 82.9804 72.2592C83.0553 72.2357 83.1442 72.2263 83.2378 72.2263H83.8836C83.9397 72.2263 84.0006 72.2357 84.0521 72.2545C84.1035 72.2733 84.1503 72.3015 84.1878 72.3345C84.2252 72.3721 84.2533 72.4191 84.2767 72.4756C84.3001 72.532 84.3141 72.6025 84.3141 72.6825V79.7044H84.3235ZM89.0827 72.2357C89.0827 72.3109 89.0781 72.3721 89.0687 72.4144C89.0593 72.4567 89.0547 72.4944 89.0406 72.5226C89.0313 72.5508 89.0172 72.5696 89.0032 72.579C88.9891 72.5884 88.9657 72.5931 88.947 72.5931C88.9189 72.5931 88.8862 72.5837 88.8441 72.5649C88.802 72.5461 88.7552 72.5273 88.6943 72.5038C88.6382 72.485 88.568 72.4614 88.4884 72.4473C88.4089 72.4285 88.3153 72.4191 88.2123 72.4191C88.0672 72.4191 87.9456 72.4426 87.8473 72.4897C87.749 72.5367 87.6648 72.612 87.6039 72.7107C87.5431 72.8095 87.4963 72.9412 87.4729 73.1011C87.4448 73.261 87.4308 73.4538 87.4308 73.6843V74.2628H88.596C88.6241 74.2628 88.6522 74.2675 88.6756 74.2816C88.699 74.2957 88.713 74.3192 88.7318 74.3521C88.7505 74.385 88.7645 74.4274 88.7739 74.4791C88.7832 74.5308 88.7879 74.592 88.7879 74.6672C88.7879 74.8083 88.7692 74.9118 88.7364 74.9729C88.699 75.0341 88.6569 75.067 88.596 75.067H87.4308V79.7044C87.4308 79.7373 87.4214 79.7608 87.4074 79.7843C87.3934 79.8031 87.3653 79.8266 87.3325 79.8407C87.2951 79.8548 87.2436 79.869 87.1828 79.8737C87.1219 79.8831 87.0424 79.8878 86.9488 79.8878C86.8552 79.8878 86.7803 79.8831 86.7148 79.8737C86.654 79.8643 86.6025 79.8548 86.565 79.8407C86.5276 79.8266 86.5042 79.8031 86.4855 79.7843C86.4715 79.7608 86.4621 79.7373 86.4621 79.7044V75.067H85.718C85.6572 75.067 85.6104 75.0341 85.5776 74.9729C85.5449 74.9118 85.5308 74.8083 85.5308 74.6672C85.5308 74.592 85.5355 74.5308 85.5449 74.4791C85.5542 74.4274 85.5636 74.385 85.5823 74.3521C85.5964 74.3192 85.6151 74.2957 85.6385 74.2816C85.6619 74.2675 85.6899 74.2628 85.718 74.2628H86.4621V73.7125C86.4621 73.3409 86.4949 73.0258 86.565 72.7577C86.6352 72.4944 86.7382 72.2733 86.8786 72.104C87.019 71.9347 87.1921 71.8077 87.4074 71.7277C87.618 71.6478 87.866 71.6055 88.1562 71.6055C88.2919 71.6055 88.4229 71.6196 88.5492 71.6431C88.6803 71.6713 88.7786 71.6948 88.8487 71.723C88.9189 71.7513 88.9657 71.7795 88.9891 71.803C89.0125 71.8265 89.0313 71.8547 89.0453 71.8924C89.0593 71.93 89.0734 71.9723 89.0781 72.0288C89.0827 72.0946 89.0827 72.1604 89.0827 72.2357ZM93.8654 74.6578C93.8654 74.5261 93.8513 74.4274 93.8139 74.3615C93.7812 74.2957 93.7344 74.2628 93.6642 74.2628H92.0824C91.9607 74.2298 91.8344 74.2016 91.694 74.1828C91.5536 74.164 91.4085 74.1546 91.2494 74.1546C90.9546 74.1546 90.6832 74.1969 90.4305 74.2863C90.1825 74.3756 89.9672 74.5026 89.7894 74.6672C89.6115 74.8318 89.4711 75.0341 89.3729 75.274C89.2699 75.5138 89.2231 75.7819 89.2231 76.0829C89.2231 76.3416 89.2606 76.5626 89.3261 76.746C89.3963 76.9295 89.4899 77.0894 89.6115 77.2352C89.4711 77.3857 89.3542 77.555 89.2606 77.7431C89.167 77.9313 89.1155 78.1476 89.1155 78.3875C89.1155 78.5615 89.1623 78.7214 89.2512 78.8672C89.3401 79.0177 89.4805 79.14 89.6677 79.2387C89.5413 79.3375 89.4337 79.4363 89.3401 79.535C89.2465 79.6338 89.167 79.742 89.1014 79.8501C89.0359 79.9583 88.9891 80.0759 88.9564 80.1982C88.9283 80.3205 88.9096 80.4428 88.9096 80.5744C88.9096 80.7767 88.9517 80.9695 89.0359 81.1435C89.1202 81.3175 89.2606 81.468 89.4477 81.595C89.6396 81.7173 89.883 81.8208 90.1778 81.8913C90.4726 81.9619 90.8329 81.9995 91.2541 81.9995C91.694 81.9995 92.0731 81.9525 92.3913 81.8537C92.7142 81.7596 92.9762 81.6279 93.1868 81.4586C93.3974 81.294 93.5472 81.1012 93.6501 80.8801C93.7531 80.6591 93.7999 80.4286 93.7999 80.1888C93.7999 79.9583 93.7578 79.7561 93.6688 79.5821C93.5799 79.4081 93.4583 79.2622 93.2991 79.1447C93.14 79.0224 92.9528 78.933 92.7376 78.8672C92.5223 78.8013 92.2836 78.7684 92.0263 78.759L90.6645 78.7026C90.4586 78.6932 90.2854 78.6461 90.1637 78.5521C90.0374 78.4627 89.9766 78.3451 89.9766 78.2087C89.9766 78.0912 90 77.9877 90.0421 77.8936C90.0842 77.8043 90.1403 77.7243 90.2059 77.6538C90.3088 77.7384 90.4586 77.809 90.6504 77.8701C90.8423 77.9265 91.0435 77.9548 91.2588 77.9548C91.5583 77.9548 91.8344 77.9124 92.0824 77.8278C92.3304 77.7431 92.5457 77.6161 92.7235 77.4515C92.906 77.2869 93.0418 77.0894 93.14 76.8542C93.2383 76.6191 93.2851 76.3463 93.2851 76.0453C93.2851 75.8619 93.257 75.6878 93.2055 75.5185C93.1541 75.3492 93.0558 75.194 92.9201 75.0529H93.6735C93.7344 75.0529 93.7811 75.0247 93.8186 74.9635C93.8513 74.8977 93.8654 74.7989 93.8654 74.6578ZM92.3679 76.05C92.3679 76.2005 92.3445 76.351 92.3024 76.4874C92.2603 76.6285 92.1901 76.7508 92.1011 76.8589C92.0122 76.9671 91.8952 77.0518 91.7548 77.1129C91.6145 77.174 91.4507 77.2023 91.2588 77.2023C90.9078 77.2023 90.6317 77.1035 90.4352 76.9012C90.2386 76.699 90.1403 76.4262 90.1403 76.0782C90.1403 75.923 90.1637 75.7725 90.2059 75.6267C90.248 75.4856 90.3182 75.3586 90.4071 75.2457C90.496 75.1376 90.613 75.0529 90.7487 74.9871C90.8844 74.9259 91.0482 74.893 91.2354 74.893C91.5957 74.893 91.8718 74.9918 92.0684 75.1987C92.2696 75.4056 92.3679 75.6878 92.3679 76.05ZM92.8452 80.2405C92.8452 80.3722 92.8171 80.4992 92.7657 80.6215C92.7142 80.7438 92.6253 80.8472 92.5036 80.9413C92.3866 81.0354 92.2275 81.1106 92.0309 81.167C91.8344 81.2235 91.5911 81.2517 91.3009 81.2517C90.847 81.2517 90.4913 81.1859 90.2339 81.0542C89.9766 80.9225 89.8502 80.7296 89.8502 80.4757C89.8502 80.3957 89.8596 80.3158 89.8783 80.2358C89.897 80.1559 89.9298 80.0759 89.9719 79.9959C90.0187 79.916 90.0795 79.8313 90.1591 79.7467C90.2386 79.6573 90.3416 79.568 90.4632 79.4692L91.8157 79.5162C92.1292 79.5256 92.3772 79.5915 92.5597 79.7138C92.7516 79.836 92.8452 80.0101 92.8452 80.2405ZM96.3409 79.2105C96.3409 79.488 96.2942 79.6761 96.2052 79.7655C96.1163 79.8596 95.9479 79.9019 95.7092 79.9019C95.4752 79.9019 95.3161 79.8549 95.2272 79.7655C95.1383 79.6761 95.0962 79.4927 95.0962 79.2246C95.0962 78.9471 95.1429 78.759 95.2319 78.6697C95.3208 78.5756 95.4892 78.5333 95.7279 78.5333C95.9619 78.5333 96.121 78.5756 96.2099 78.6697C96.2941 78.7543 96.3409 78.9377 96.3409 79.2105ZM107.198 75.9606C107.198 76.5767 107.128 77.1317 106.983 77.6255C106.838 78.1194 106.622 78.538 106.341 78.886C106.056 79.2293 105.7 79.4974 105.27 79.6855C104.839 79.8737 104.339 79.963 103.763 79.963C103.197 79.963 102.71 79.8784 102.298 79.7091C101.882 79.5397 101.545 79.2905 101.273 78.9659C101.002 78.6414 100.801 78.237 100.674 77.7572C100.543 77.2775 100.478 76.7225 100.478 76.097C100.478 75.495 100.548 74.9494 100.693 74.4603C100.838 73.9712 101.053 73.5526 101.339 73.2093C101.624 72.8659 101.985 72.6025 102.415 72.4144C102.846 72.2263 103.346 72.1369 103.922 72.1369C104.474 72.1369 104.956 72.2216 105.368 72.3909C105.78 72.5602 106.122 72.8048 106.393 73.1293C106.664 73.4538 106.87 73.8536 107.006 74.3286C107.132 74.7989 107.198 75.3445 107.198 75.9606ZM106.14 76.0312C106.14 75.6032 106.103 75.1987 106.028 74.8319C105.953 74.4603 105.827 74.1405 105.654 73.8677C105.476 73.5949 105.242 73.3833 104.947 73.2328C104.652 73.0823 104.287 73.0023 103.857 73.0023C103.421 73.0023 103.061 73.087 102.766 73.2469C102.471 73.4115 102.233 73.6325 102.05 73.9053C101.868 74.1828 101.737 74.4979 101.657 74.8648C101.578 75.2316 101.54 75.6126 101.54 76.0171C101.54 76.4639 101.578 76.873 101.652 77.2493C101.727 77.6255 101.849 77.9501 102.022 78.2229C102.195 78.4956 102.429 78.7026 102.719 78.8531C103.01 79.0036 103.379 79.0788 103.819 79.0788C104.259 79.0788 104.624 78.9942 104.924 78.8296C105.223 78.6649 105.462 78.4439 105.644 78.1617C105.827 77.8842 105.958 77.5597 106.033 77.1881C106.103 76.8307 106.14 76.4403 106.14 76.0312ZM111.545 72.2357C111.545 72.3109 111.541 72.3721 111.531 72.4144C111.522 72.4567 111.517 72.4944 111.503 72.5226C111.494 72.5508 111.48 72.5696 111.466 72.579C111.452 72.5884 111.428 72.5931 111.41 72.5931C111.382 72.5931 111.349 72.5837 111.307 72.5649C111.265 72.5461 111.218 72.5273 111.157 72.5038C111.101 72.485 111.031 72.4614 110.951 72.4473C110.871 72.4285 110.778 72.4191 110.675 72.4191C110.53 72.4191 110.408 72.4426 110.31 72.4897C110.212 72.5367 110.127 72.612 110.067 72.7107C110.006 72.8095 109.959 72.9412 109.935 73.1011C109.907 73.261 109.893 73.4538 109.893 73.6843V74.2628H111.059C111.087 74.2628 111.115 74.2675 111.138 74.2816C111.162 74.2957 111.18 74.3192 111.194 74.3521C111.213 74.385 111.227 74.4274 111.236 74.4791C111.246 74.5308 111.25 74.592 111.25 74.6672C111.25 74.8083 111.232 74.9118 111.199 74.9729C111.162 75.0341 111.119 75.067 111.059 75.067H109.893V79.7044C109.893 79.7373 109.884 79.7608 109.87 79.7843C109.856 79.8031 109.828 79.8266 109.79 79.8407C109.753 79.8548 109.701 79.869 109.641 79.8737C109.58 79.8831 109.5 79.8878 109.407 79.8878C109.313 79.8878 109.238 79.8831 109.173 79.8737C109.112 79.8643 109.06 79.8548 109.023 79.8407C108.986 79.8266 108.962 79.8031 108.948 79.7843C108.934 79.7608 108.925 79.7373 108.925 79.7044V75.067H108.181C108.12 75.067 108.073 75.0341 108.04 74.9729C108.007 74.9118 107.993 74.8083 107.993 74.6672C107.993 74.592 107.998 74.5308 108.007 74.4791C108.017 74.4274 108.026 74.385 108.045 74.3521C108.059 74.3192 108.078 74.2957 108.101 74.2816C108.124 74.2675 108.153 74.2628 108.181 74.2628H108.925V73.7125C108.925 73.3409 108.957 73.0258 109.028 72.7577C109.098 72.4944 109.201 72.2733 109.341 72.104C109.482 71.9347 109.655 71.8077 109.87 71.7277C110.081 71.6478 110.329 71.6055 110.619 71.6055C110.754 71.6055 110.885 71.6196 111.012 71.6431C111.143 71.6713 111.241 71.6948 111.311 71.723C111.382 71.7513 111.428 71.7795 111.452 71.803C111.475 71.8265 111.494 71.8547 111.508 71.8924C111.522 71.93 111.536 71.9723 111.541 72.0288C111.545 72.0946 111.545 72.1604 111.545 72.2357ZM120.736 79.4974C120.764 79.5821 120.783 79.6526 120.788 79.7044C120.788 79.7561 120.774 79.7984 120.746 79.8266C120.713 79.8548 120.661 79.869 120.591 79.8784C120.521 79.8878 120.423 79.8925 120.301 79.8925C120.184 79.8925 120.086 79.8925 120.016 79.8831C119.945 79.8784 119.889 79.869 119.852 79.8548C119.814 79.8407 119.786 79.8219 119.772 79.7984C119.754 79.7749 119.739 79.7467 119.721 79.7091L119.075 77.856H115.949L115.331 79.6855C115.317 79.7232 115.303 79.7514 115.284 79.7796C115.266 79.8078 115.238 79.8266 115.2 79.8454C115.163 79.8643 115.111 79.8737 115.046 79.8831C114.98 79.8925 114.891 79.8972 114.784 79.8972C114.671 79.8972 114.578 79.8925 114.508 79.8831C114.437 79.8737 114.386 79.8548 114.358 79.8266C114.33 79.7984 114.316 79.7561 114.316 79.7044C114.316 79.6479 114.334 79.5821 114.367 79.4974L116.89 72.4238C116.904 72.3815 116.927 72.3439 116.95 72.3156C116.978 72.2874 117.011 72.2639 117.063 72.2498C117.109 72.2357 117.17 72.2216 117.25 72.2169C117.325 72.2122 117.418 72.2075 117.535 72.2075C117.657 72.2075 117.76 72.2075 117.844 72.2169C117.924 72.2216 117.989 72.2357 118.041 72.2498C118.092 72.2639 118.13 72.2874 118.158 72.3156C118.186 72.3439 118.209 72.3815 118.223 72.4238L120.736 79.4974ZM117.498 73.2516H117.493L116.197 77.0471H118.813L117.498 73.2516ZM122.851 79.7091C122.851 79.742 122.842 79.7655 122.828 79.789C122.814 79.8078 122.791 79.8313 122.753 79.8454C122.716 79.8596 122.669 79.8737 122.608 79.8784C122.547 79.8878 122.468 79.8925 122.369 79.8925C122.276 79.8925 122.196 79.8878 122.135 79.8784C122.07 79.869 122.023 79.8596 121.986 79.8454C121.948 79.8313 121.92 79.8078 121.911 79.789C121.897 79.7655 121.892 79.742 121.892 79.7091V71.8547C121.892 71.8218 121.897 71.7936 121.911 71.7748C121.925 71.7513 121.948 71.7325 121.986 71.7136C122.023 71.6995 122.07 71.6854 122.135 71.6807C122.196 71.6713 122.276 71.6666 122.369 71.6666C122.468 71.6666 122.547 71.6713 122.608 71.6807C122.674 71.6901 122.72 71.6995 122.753 71.7136C122.791 71.7277 122.814 71.7513 122.828 71.7748C122.842 71.7983 122.851 71.8265 122.851 71.8547V79.7091ZM125.58 79.7091C125.58 79.742 125.57 79.7655 125.556 79.789C125.542 79.8078 125.519 79.8313 125.481 79.8454C125.444 79.8596 125.397 79.8737 125.336 79.8784C125.276 79.8878 125.196 79.8925 125.098 79.8925C125.004 79.8925 124.925 79.8878 124.864 79.8784C124.798 79.869 124.751 79.8596 124.714 79.8454C124.677 79.8313 124.648 79.8078 124.634 79.789C124.62 79.7655 124.616 79.742 124.616 79.7091V71.8547C124.616 71.8218 124.62 71.7936 124.634 71.7748C124.648 71.7513 124.672 71.7325 124.714 71.7136C124.751 71.6995 124.798 71.6854 124.864 71.6807C124.925 71.6713 125.004 71.6666 125.098 71.6666C125.196 71.6666 125.276 71.6713 125.336 71.6807C125.402 71.6901 125.449 71.6995 125.481 71.7136C125.519 71.7277 125.542 71.7513 125.556 71.7748C125.57 71.7983 125.58 71.8265 125.58 71.8547V79.7091ZM135.164 79.7044C135.164 79.7373 135.159 79.7608 135.145 79.7843C135.131 79.8078 135.108 79.8266 135.07 79.8454C135.033 79.8596 134.977 79.8737 134.906 79.8784C134.836 79.8878 134.743 79.8925 134.63 79.8925C134.527 79.8925 134.448 79.8878 134.382 79.8784C134.317 79.869 134.265 79.8596 134.228 79.8407C134.19 79.8219 134.162 79.7984 134.139 79.7655C134.116 79.7373 134.101 79.6949 134.083 79.6479L133.39 77.8513C133.311 77.6444 133.222 77.4609 133.137 77.2916C133.049 77.1223 132.946 76.9765 132.824 76.8495C132.707 76.7225 132.562 76.6285 132.398 76.5626C132.234 76.4921 132.038 76.4592 131.813 76.4592H131.144V79.7044C131.144 79.7373 131.135 79.7608 131.12 79.7843C131.102 79.8078 131.074 79.8266 131.041 79.8407C131.004 79.8548 130.952 79.869 130.891 79.8784C130.826 79.8878 130.746 79.8925 130.648 79.8925C130.55 79.8925 130.47 79.8878 130.405 79.8784C130.339 79.869 130.288 79.8548 130.25 79.8407C130.213 79.8266 130.185 79.8078 130.171 79.7843C130.156 79.7608 130.147 79.7326 130.147 79.7044V72.6543C130.147 72.5038 130.185 72.3956 130.264 72.3345C130.344 72.2733 130.428 72.2451 130.517 72.2451H132.117C132.309 72.2451 132.464 72.2498 132.59 72.2592C132.716 72.2686 132.829 72.2827 132.927 72.2921C133.217 72.3439 133.474 72.4238 133.699 72.532C133.924 72.6402 134.106 72.7813 134.261 72.9506C134.415 73.1199 134.527 73.3127 134.602 73.5291C134.677 73.7454 134.715 73.9853 134.715 74.2487C134.715 74.5026 134.682 74.7284 134.612 74.9353C134.541 75.1376 134.443 75.3163 134.317 75.4715C134.186 75.6267 134.036 75.7584 133.858 75.876C133.68 75.9888 133.479 76.0829 133.259 76.1629C133.385 76.2193 133.493 76.2851 133.596 76.3698C133.699 76.4545 133.793 76.5579 133.877 76.6755C133.966 76.7931 134.045 76.9295 134.125 77.0847C134.204 77.2352 134.279 77.4092 134.359 77.602L135.033 79.2811C135.084 79.4222 135.122 79.5209 135.136 79.5774C135.154 79.6244 135.164 79.6714 135.164 79.7044ZM133.657 74.3474C133.657 74.0511 133.591 73.7972 133.46 73.5902C133.329 73.3833 133.109 73.2375 132.796 73.1481C132.698 73.1199 132.59 73.1011 132.468 73.0917C132.347 73.0776 132.187 73.0729 131.986 73.0729H131.144V75.6408H132.122C132.384 75.6408 132.613 75.6079 132.805 75.5467C132.997 75.4809 133.156 75.3915 133.283 75.274C133.414 75.1564 133.502 75.02 133.568 74.8648C133.629 74.7049 133.657 74.5356 133.657 74.3474ZM137.798 79.2105C137.798 79.488 137.752 79.6761 137.663 79.7655C137.574 79.8596 137.405 79.9019 137.167 79.9019C136.933 79.9019 136.774 79.8549 136.685 79.7655C136.596 79.6761 136.554 79.4927 136.554 79.2246C136.554 78.9471 136.6 78.759 136.689 78.6697C136.778 78.5756 136.947 78.5333 137.185 78.5333C137.419 78.5333 137.578 78.5756 137.667 78.6697C137.752 78.7543 137.798 78.9377 137.798 79.2105ZM145.838 75.9606C145.838 76.5767 145.768 77.1317 145.623 77.6255C145.478 78.1194 145.263 78.538 144.982 78.886C144.696 79.2293 144.341 79.4974 143.91 79.6855C143.48 79.8737 142.979 79.963 142.403 79.963C141.837 79.963 141.35 79.8784 140.939 79.7091C140.522 79.5397 140.185 79.2905 139.914 78.9659C139.642 78.6414 139.441 78.237 139.315 77.7572C139.184 77.2775 139.118 76.7225 139.118 76.097C139.118 75.495 139.188 74.9494 139.333 74.4603C139.478 73.9712 139.694 73.5526 139.979 73.2093C140.265 72.8659 140.625 72.6025 141.056 72.4144C141.486 72.2263 141.987 72.1369 142.562 72.1369C143.115 72.1369 143.597 72.2216 144.008 72.3909C144.42 72.5602 144.762 72.8048 145.033 73.1293C145.305 73.4538 145.511 73.8536 145.646 74.3286C145.768 74.7989 145.838 75.3445 145.838 75.9606ZM144.781 76.0312C144.781 75.6032 144.743 75.1987 144.668 74.8319C144.593 74.4603 144.467 74.1405 144.289 73.8677C144.111 73.5949 143.877 73.3833 143.587 73.2328C143.292 73.0823 142.927 73.0023 142.497 73.0023C142.062 73.0023 141.701 73.087 141.406 73.2469C141.112 73.4115 140.873 73.6325 140.69 73.9053C140.508 74.1828 140.377 74.4979 140.297 74.8648C140.218 75.2316 140.18 75.6126 140.18 76.0171C140.18 76.4639 140.218 76.873 140.293 77.2493C140.368 77.6255 140.489 77.9501 140.662 78.2229C140.836 78.4956 141.07 78.7026 141.36 78.8531C141.65 79.0036 142.02 79.0788 142.459 79.0788C142.899 79.0788 143.264 78.9942 143.564 78.8296C143.863 78.6649 144.102 78.4439 144.285 78.1617C144.467 77.8842 144.593 77.5597 144.673 77.1881C144.738 76.8307 144.781 76.4403 144.781 76.0312ZM148.379 79.2105C148.379 79.488 148.332 79.6761 148.244 79.7655C148.155 79.8596 147.986 79.9019 147.747 79.9019C147.513 79.9019 147.354 79.8549 147.265 79.7655C147.177 79.6761 147.134 79.4927 147.134 79.2246C147.134 78.9471 147.181 78.759 147.27 78.6697C147.359 78.5756 147.528 78.5333 147.766 78.5333C148 78.5333 148.159 78.5756 148.248 78.6697C148.332 78.7543 148.379 78.9377 148.379 79.2105ZM157.561 74.4744C157.561 74.8554 157.5 75.1987 157.374 75.5044C157.252 75.8101 157.074 76.0688 156.84 76.2851C156.611 76.5015 156.33 76.6661 155.993 76.7837C155.656 76.9012 155.258 76.9624 154.79 76.9624H153.939V79.6996C153.939 79.7326 153.929 79.7608 153.911 79.7796C153.892 79.8031 153.864 79.8219 153.831 79.836C153.794 79.8501 153.742 79.8643 153.681 79.8737C153.616 79.8831 153.536 79.8878 153.438 79.8878C153.34 79.8878 153.26 79.8831 153.195 79.8737C153.129 79.8643 153.078 79.8501 153.04 79.836C153.003 79.8219 152.975 79.8031 152.961 79.7796C152.947 79.7561 152.937 79.7279 152.937 79.6996V72.6731C152.937 72.5179 152.979 72.405 153.059 72.3392C153.139 72.2733 153.227 72.2404 153.33 72.2404H154.94C155.104 72.2404 155.258 72.2451 155.408 72.2592C155.558 72.2733 155.736 72.3015 155.937 72.3486C156.143 72.3956 156.349 72.4803 156.559 72.6025C156.77 72.7295 156.948 72.88 157.098 73.0588C157.243 73.2375 157.355 73.4491 157.434 73.6843C157.519 73.9241 157.561 74.1875 157.561 74.4744ZM156.513 74.5544C156.513 74.244 156.456 73.9853 156.344 73.7736C156.227 73.5667 156.087 73.4115 155.918 73.308C155.75 73.2093 155.577 73.1434 155.399 73.1152C155.216 73.087 155.043 73.0729 154.87 73.0729H153.948V76.1346H154.851C155.151 76.1346 155.403 76.0923 155.605 76.0171C155.806 75.9371 155.97 75.8289 156.11 75.6878C156.246 75.5514 156.349 75.3821 156.419 75.1893C156.48 74.9918 156.513 74.7801 156.513 74.5544ZM162.666 79.7138C162.666 79.7608 162.652 79.7984 162.62 79.8219C162.587 79.8454 162.545 79.8643 162.489 79.8737C162.437 79.8878 162.358 79.8925 162.25 79.8925C162.152 79.8925 162.067 79.8878 162.011 79.8737C161.95 79.8596 161.908 79.8454 161.88 79.8219C161.852 79.7984 161.838 79.7655 161.838 79.7138V79.1823C161.609 79.4269 161.356 79.6197 161.075 79.7608C160.794 79.8972 160.495 79.963 160.181 79.963C159.905 79.963 159.657 79.9254 159.433 79.8548C159.213 79.7843 159.021 79.6761 158.862 79.5397C158.707 79.4033 158.581 79.234 158.497 79.0318C158.408 78.8296 158.366 78.6038 158.366 78.3498C158.366 78.0488 158.427 77.7902 158.548 77.5738C158.665 77.3528 158.838 77.1693 159.068 77.0235C159.292 76.8777 159.568 76.7696 159.891 76.6943C160.219 76.6238 160.584 76.5861 160.991 76.5861H161.712V76.1723C161.712 75.97 161.688 75.7866 161.646 75.6314C161.604 75.4762 161.534 75.3445 161.44 75.241C161.347 75.1376 161.22 75.0576 161.071 75.0059C160.921 74.9494 160.734 74.9259 160.514 74.9259C160.28 74.9259 160.064 74.9541 159.877 75.0106C159.69 75.067 159.526 75.1329 159.381 75.2034C159.241 75.2739 159.119 75.3351 159.026 75.3962C158.932 75.4527 158.862 75.4809 158.815 75.4809C158.782 75.4809 158.754 75.4715 158.735 75.4574C158.712 75.4433 158.693 75.4197 158.675 75.3868C158.656 75.3586 158.647 75.3163 158.637 75.2692C158.628 75.2175 158.623 75.1658 158.623 75.1046C158.623 75.0106 158.628 74.9306 158.642 74.8742C158.656 74.8177 158.689 74.7613 158.74 74.7143C158.792 74.6625 158.881 74.6014 159.012 74.5355C159.138 74.465 159.288 74.4039 159.451 74.3427C159.615 74.2863 159.798 74.2393 159.999 74.2016C160.195 74.164 160.397 74.1452 160.598 74.1452C160.972 74.1452 161.291 74.1875 161.557 74.2722C161.819 74.3568 162.035 74.4885 162.194 74.6531C162.358 74.8177 162.475 75.0247 162.545 75.274C162.62 75.5185 162.657 75.8101 162.657 76.1393V79.7138H162.666ZM161.716 77.2869H160.897C160.635 77.2869 160.406 77.3104 160.214 77.3575C160.022 77.3998 159.863 77.4703 159.732 77.5597C159.606 77.6491 159.512 77.7525 159.451 77.8748C159.391 78.0018 159.363 78.1429 159.363 78.3028C159.363 78.5803 159.447 78.7966 159.62 78.9612C159.793 79.1259 160.032 79.2058 160.345 79.2058C160.593 79.2058 160.827 79.14 161.043 79.013C161.258 78.886 161.482 78.6838 161.721 78.4204V77.2869H161.716ZM167.486 74.7566C167.486 74.8413 167.486 74.9165 167.482 74.9729C167.477 75.0294 167.468 75.0764 167.458 75.1093C167.449 75.1423 167.43 75.1658 167.416 75.1846C167.402 75.2034 167.379 75.2128 167.346 75.2128C167.313 75.2128 167.276 75.2034 167.234 75.1846C167.187 75.1658 167.14 75.147 167.084 75.1329C167.028 75.114 166.967 75.0999 166.897 75.0811C166.827 75.067 166.752 75.0576 166.672 75.0576C166.574 75.0576 166.48 75.0764 166.387 75.114C166.293 75.1564 166.195 75.2175 166.097 75.3116C165.994 75.4009 165.886 75.5232 165.774 75.669C165.661 75.8195 165.54 76.0029 165.404 76.2193V79.7044C165.404 79.7373 165.395 79.7608 165.381 79.7843C165.367 79.8031 165.343 79.8266 165.306 79.8407C165.268 79.8548 165.221 79.869 165.161 79.8737C165.1 79.8831 165.02 79.8878 164.922 79.8878C164.828 79.8878 164.749 79.8831 164.688 79.8737C164.622 79.8643 164.576 79.8548 164.538 79.8407C164.501 79.8266 164.473 79.8031 164.459 79.7843C164.445 79.7608 164.44 79.7373 164.44 79.7044V74.4086C164.44 74.3756 164.445 74.3521 164.459 74.3286C164.473 74.3098 164.491 74.2863 164.529 74.2722C164.566 74.2534 164.608 74.244 164.665 74.2345C164.716 74.2298 164.791 74.2251 164.88 74.2251C164.964 74.2251 165.039 74.2251 165.09 74.2345C165.147 74.2392 165.193 74.2534 165.221 74.2722C165.25 74.291 165.273 74.3098 165.287 74.3286C165.301 74.3521 165.306 74.3756 165.306 74.4086V75.1799C165.451 74.9682 165.582 74.7942 165.708 74.6578C165.835 74.5261 165.956 74.418 166.064 74.3427C166.176 74.2675 166.288 74.2157 166.396 74.1828C166.508 74.1546 166.616 74.1405 166.733 74.1405C166.785 74.1405 166.841 74.1405 166.902 74.1499C166.967 74.1546 167.033 74.1687 167.103 74.1828C167.173 74.1969 167.234 74.2157 167.29 74.2345C167.346 74.2534 167.384 74.2722 167.407 74.291C167.43 74.3098 167.444 74.3286 167.454 74.3474C167.463 74.3662 167.468 74.3898 167.477 74.4133C167.482 74.4415 167.486 74.4838 167.486 74.5355C167.486 74.5967 167.486 74.6625 167.486 74.7566Z" fill="black"/>
<path fill-rule="evenodd" clip-rule="evenodd" d="M171.292 79.3136C171.292 79.4265 171.283 79.5206 171.269 79.5864C171.255 79.6523 171.231 79.704 171.198 79.7322C171.17 79.7651 171.119 79.7934 171.058 79.8216C170.997 79.8498 170.927 79.8733 170.847 79.8921C170.768 79.9109 170.684 79.9251 170.595 79.9345C170.506 79.9486 170.417 79.9533 170.328 79.9533C170.057 79.9533 169.823 79.9156 169.631 79.8451C169.439 79.7746 169.28 79.6617 169.153 79.5159C169.032 79.3701 168.943 79.1819 168.882 78.9562C168.826 78.7304 168.798 78.4671 168.798 78.1614V75.0714H168.063C168.007 75.0714 167.96 75.0384 167.923 74.9773C167.89 74.9162 167.871 74.8127 167.871 74.6716C167.871 74.5963 167.876 74.5352 167.885 74.4835C167.894 74.4317 167.909 74.3894 167.923 74.3565C167.937 74.3236 167.96 74.3 167.983 74.2859C168.011 74.2718 168.035 74.2671 168.068 74.2671H168.798V73.0114C168.798 72.9832 168.802 72.9549 168.816 72.9361C168.83 72.9126 168.854 72.8938 168.896 72.875C168.933 72.8562 168.98 72.8468 169.046 72.8374C169.107 72.8279 169.186 72.8232 169.28 72.8232C169.378 72.8232 169.458 72.8279 169.518 72.8374C169.584 72.8468 169.631 72.8562 169.663 72.875C169.701 72.8938 169.724 72.9126 169.738 72.9361C169.752 72.9596 169.762 72.9832 169.762 73.0114V74.2671H171.095C171.128 74.2671 171.152 74.2718 171.175 74.2859C171.198 74.3 171.217 74.3236 171.236 74.3565C171.255 74.3894 171.264 74.4317 171.273 74.4835C171.283 74.5352 171.287 74.5963 171.287 74.6716C171.287 74.8127 171.269 74.9162 171.236 74.9773C171.198 75.0384 171.156 75.0714 171.095 75.0714H169.762V78.0156C169.762 78.3777 169.813 78.6552 169.921 78.8386C170.024 79.0267 170.216 79.1161 170.492 79.1161C170.581 79.1161 170.66 79.1067 170.726 79.0879C170.796 79.0691 170.857 79.0503 170.908 79.0314C170.96 79.0126 171.006 78.9938 171.049 78.975C171.086 78.9562 171.123 78.9468 171.152 78.9468C171.17 78.9468 171.189 78.9515 171.208 78.9609C171.222 78.9703 171.236 78.9891 171.245 79.0173C171.255 79.0456 171.264 79.0832 171.269 79.1302C171.292 79.1819 171.292 79.2431 171.292 79.3136ZM175.85 78.2601C175.85 78.5329 175.799 78.7728 175.7 78.9844C175.602 79.1961 175.462 79.3748 175.279 79.5206C175.097 79.6664 174.881 79.7745 174.629 79.8498C174.376 79.925 174.1 79.9627 173.796 79.9627C173.608 79.9627 173.431 79.9486 173.262 79.9203C173.094 79.8921 172.944 79.8545 172.808 79.8122C172.677 79.7698 172.56 79.7228 172.471 79.6758C172.378 79.6288 172.312 79.5817 172.27 79.5441C172.228 79.5065 172.195 79.45 172.176 79.3795C172.158 79.3089 172.148 79.2149 172.148 79.0926C172.148 79.0173 172.153 78.9562 172.162 78.9045C172.172 78.8527 172.181 78.8104 172.19 78.7775C172.205 78.7446 172.219 78.721 172.242 78.7069C172.265 78.6928 172.289 78.6881 172.317 78.6881C172.359 78.6881 172.42 78.7163 172.504 78.7681C172.588 78.8198 172.691 78.8809 172.813 78.9421C172.935 79.0032 173.08 79.0644 173.243 79.1161C173.412 79.1725 173.599 79.1961 173.814 79.1961C173.978 79.1961 174.123 79.1772 174.254 79.1396C174.385 79.1067 174.502 79.055 174.596 78.9844C174.694 78.9139 174.764 78.8292 174.82 78.721C174.872 78.6129 174.9 78.4906 174.9 78.3401C174.9 78.1896 174.863 78.0626 174.788 77.9638C174.713 77.8604 174.615 77.771 174.488 77.691C174.362 77.6111 174.226 77.5405 174.072 77.4841C173.917 77.423 173.758 77.3618 173.594 77.2913C173.431 77.2207 173.271 77.1502 173.112 77.0655C172.958 76.9809 172.818 76.8774 172.691 76.7551C172.57 76.6328 172.471 76.487 172.392 76.3177C172.317 76.1484 172.279 75.9462 172.279 75.711C172.279 75.5041 172.321 75.3065 172.396 75.1137C172.476 74.9209 172.593 74.7562 172.752 74.6152C172.911 74.4741 173.112 74.3565 173.351 74.2718C173.59 74.1872 173.866 74.1448 174.184 74.1448C174.324 74.1448 174.46 74.1589 174.601 74.1825C174.741 74.206 174.863 74.2389 174.98 74.2765C175.092 74.3141 175.19 74.3518 175.265 74.3941C175.345 74.4364 175.405 74.4741 175.448 74.507C175.49 74.5399 175.513 74.5681 175.527 74.5869C175.541 74.6105 175.55 74.6387 175.555 74.6669C175.56 74.6951 175.569 74.7327 175.574 74.7751C175.579 74.8174 175.583 74.8738 175.583 74.935C175.583 75.0008 175.583 75.062 175.574 75.109C175.569 75.156 175.56 75.1983 175.546 75.2266C175.532 75.2595 175.518 75.283 175.494 75.2971C175.476 75.3112 175.452 75.3159 175.429 75.3159C175.391 75.3159 175.345 75.2924 175.274 75.2501C175.209 75.2078 175.125 75.1607 175.017 75.1137C174.914 75.062 174.788 75.0196 174.647 74.9773C174.507 74.935 174.343 74.9115 174.161 74.9115C173.997 74.9115 173.852 74.9303 173.73 74.9679C173.604 75.0055 173.505 75.0573 173.426 75.1231C173.346 75.1889 173.286 75.2736 173.243 75.3677C173.201 75.4617 173.183 75.5605 173.183 75.6687C173.183 75.8192 173.22 75.9509 173.3 76.0543C173.379 76.1578 173.477 76.2472 173.599 76.3271C173.721 76.4071 173.866 76.4776 174.025 76.5388C174.184 76.5999 174.343 76.6657 174.507 76.7316C174.671 76.8021 174.834 76.8727 174.994 76.9573C175.153 77.042 175.298 77.1408 175.419 77.2583C175.546 77.3759 175.644 77.517 175.719 77.6816C175.813 77.8368 175.85 78.0344 175.85 78.2601Z" fill="black"/>
</g>
<defs>
<clipPath id="clip0_814_1338">
<rect width="241" height="82" fill="white"/>
</clipPath>
</defs>
</svg>
